<svg xmlns="http://www.w3.org/2000/svg" width="1200" height="640" viewBox="0 0 1200 640">
  <rect x="0" y="0" width="1200" height="640" fill="#ffffff" />
  <rect x="20" y="20" width="1160" height="60" fill="#f3f4f6" />

  <g stroke="#d1d5db" stroke-width="1">
    <line x1="20" y1="20" x2="1180" y2="20" />
    <line x1="20" y1="80" x2="1180" y2="80" />
    <line x1="20" y1="134" x2="1180" y2="134" />
    <line x1="20" y1="188" x2="1180" y2="188" />
    <line x1="20" y1="242" x2="1180" y2="242" />
    <line x1="20" y1="296" x2="1180" y2="296" />
    <line x1="20" y1="350" x2="1180" y2="350" />
    <line x1="20" y1="404" x2="1180" y2="404" />
    <line x1="20" y1="458" x2="1180" y2="458" />
    <line x1="20" y1="512" x2="1180" y2="512" />
    <line x1="20" y1="566" x2="1180" y2="566" />
    <line x1="20" y1="620" x2="1180" y2="620" />

    <line x1="20" y1="20" x2="20" y2="620" />
    <line x1="620" y1="20" x2="620" y2="620" />
    <line x1="760" y1="20" x2="760" y2="620" />
    <line x1="900" y1="20" x2="900" y2="620" />
    <line x1="1040" y1="20" x2="1040" y2="620" />
    <line x1="1180" y1="20" x2="1180" y2="620" />
  </g>

  <g font-family="Helvetica, Arial, sans-serif" font-size="20" fill="#111827" font-weight="600">
    <text x="40" y="50" dominant-baseline="middle">Action</text>
    <text x="690" y="50" dominant-baseline="middle" text-anchor="middle">Owner</text>
    <text x="830" y="50" dominant-baseline="middle" text-anchor="middle">Admin</text>
    <text x="970" y="50" dominant-baseline="middle" text-anchor="middle">Staff</text>
    <text x="1110" y="50" dominant-baseline="middle" text-anchor="middle">Promoter</text>
  </g>

  <g font-family="Helvetica, Arial, sans-serif" font-size="18" fill="#111827">
    <text x="40" y="107" dominant-baseline="middle">Edit organisation info</text>
    <text x="40" y="161" dominant-baseline="middle">Manage events/services/tournaments</text>
    <text x="40" y="215" dominant-baseline="middle">View finances and payouts</text>
    <text x="40" y="269" dominant-baseline="middle">Manage members and assign roles</text>
    <text x="40" y="323" dominant-baseline="middle">Transfer ownership</text>
    <text x="40" y="377" dominant-baseline="middle">Create promoter links</text>
    <text x="40" y="431" dominant-baseline="middle">See promoter sales</text>
    <text x="40" y="485" dominant-baseline="middle">Modify policies (cancel/no-show)</text>
    <text x="40" y="539" dominant-baseline="middle">Create tournaments (padel)</text>
    <text x="40" y="593" dominant-baseline="middle">Access staff chat (future)</text>
  </g>

  <g font-family="Helvetica, Arial, sans-serif" font-size="18" fill="#111827" text-anchor="middle" dominant-baseline="middle">
    <text x="690" y="107">Yes</text>
    <text x="830" y="107">Yes</text>
    <text x="970" y="107">No</text>
    <text x="1110" y="107">No</text>

    <text x="690" y="161">Yes</text>
    <text x="830" y="161">Yes</text>
    <text x="970" y="161">Yes</text>
    <text x="1110" y="161">No</text>

    <text x="690" y="215">Yes</text>
    <text x="830" y="215">Yes</text>
    <text x="970" y="215">No</text>
    <text x="1110" y="215">No</text>

    <text x="690" y="269">Yes</text>
    <text x="830" y="269">Yes</text>
    <text x="970" y="269">No</text>
    <text x="1110" y="269">No</text>

    <text x="690" y="323">Yes</text>
    <text x="830" y="323">No</text>
    <text x="970" y="323">No</text>
    <text x="1110" y="323">No</text>

    <text x="690" y="377">Yes</text>
    <text x="830" y="377">Yes</text>
    <text x="970" y="377">No</text>
    <text x="1110" y="377">Yes</text>

    <text x="690" y="431">Yes</text>
    <text x="830" y="431">Yes</text>
    <text x="970" y="431">No</text>
    <text x="1110" y="431" font-size="16">Yes (own)</text>

    <text x="690" y="485">Yes</text>
    <text x="830" y="485">Yes</text>
    <text x="970" y="485">Yes</text>
    <text x="1110" y="485">No</text>

    <text x="690" y="539">Yes</text>
    <text x="830" y="539">Yes</text>
    <text x="970" y="539">Yes</text>
    <text x="1110" y="539">No</text>

    <text x="690" y="593">Yes</text>
    <text x="830" y="593">Yes</text>
    <text x="970" y="593">Yes</text>
    <text x="1110" y="593">No</text>
  </g>
</svg>
